<?xml version="1.0" encoding="UTF-8" standalone="no"?><!DOCTYPE svg PUBLIC "-//W3C//DTD SVG 1.1//EN" "http://www.w3.org/Graphics/SVG/1.1/DTD/svg11.dtd"><svg width="100%" height="100%" viewBox="0 0 50 19" version="1.1" xmlns="http://www.w3.org/2000/svg" xmlns:xlink="http://www.w3.org/1999/xlink" xml:space="preserve" xmlns:serif="http://www.serif.com/" style="fill-rule:evenodd;clip-rule:evenodd;stroke-linecap:round;stroke-linejoin:round;stroke-miterlimit:1.5;"><g><path d="M49.092,3.959l-5.289,7.701l-7.363,-10.839l-2.929,3.516" style="fill:none;stroke:#e65f5c;stroke-width:1.53px;"/><path d="M48.441,12.794l-6.334,-8.111l-6.981,8.327" style="fill:none;stroke:#6a7fdb;stroke-width:1.53px;"/><path d="M0.97,3.959l5.289,7.701l7.362,-10.839l2.149,2.578" style="fill:none;stroke:#e65f5c;stroke-width:1.53px;"/><path d="M1.621,12.794l6.334,-8.111l6.981,8.327" style="fill:none;stroke:#6a7fdb;stroke-width:1.53px;"/><path d="M20.238,16.088l0,0.927c0,0.133 0.02,0.236 0.082,0.302c0.057,0.061 0.147,0.081 0.261,0.081l1.38,0c0.12,0 0.217,0.097 0.217,0.217l0,1.1c0,0.12 -0.097,0.217 -0.217,0.217l-1.8,-0c-0.491,-0 -0.881,-0.152 -1.173,-0.444c-0.29,-0.291 -0.443,-0.693 -0.443,-1.213l-0,-1.189c-1.309,-0.145 -2.38,-0.632 -3.216,-1.457l-0.001,-0.001c-1.009,-1.009 -1.523,-2.478 -1.523,-4.413l-0,-3.16c-0,-1.936 0.515,-3.398 1.524,-4.394c1.012,-1.011 2.368,-1.523 4.072,-1.523c1.705,0 3.061,0.512 4.073,1.523c1.009,0.996 1.524,2.458 1.524,4.394l0,3.16c0,1.935 -0.514,3.404 -1.523,4.413l-0.001,0.001c-0.841,0.829 -1.918,1.317 -3.236,1.459Zm-0.837,-1.55c1.236,0 2.191,-0.364 2.859,-1.108c0.001,-0 0.001,-0.001 0.002,-0.001c0.687,-0.752 1.023,-1.811 1.023,-3.174l-0,-3.24c-0,-1.363 -0.336,-2.422 -1.023,-3.174c-0.001,-0 -0.001,-0.001 -0.002,-0.001c-0.668,-0.744 -1.623,-1.108 -2.859,-1.108c-1.223,-0 -2.178,0.365 -2.86,1.109c-0.687,0.752 -1.023,1.811 -1.023,3.174l0,3.24c0,1.363 0.336,2.422 1.023,3.174c0.682,0.744 1.637,1.109 2.86,1.109Z" style="fill:#f2fdff;fill-rule:nonzero;"/><path d="M31.542,16.132c-0.862,-0 -1.632,-0.151 -2.309,-0.45c-0.001,-0 -0.002,-0.001 -0.003,-0.001c-0.692,-0.317 -1.237,-0.792 -1.635,-1.425c-0.001,-0 -0.001,-0.001 -0.001,-0.001c-0.395,-0.638 -0.596,-1.444 -0.596,-2.419l-0,-0.315c-0,-0.119 0.097,-0.216 0.216,-0.216l1.061,-0c0.12,-0 0.217,0.097 0.217,0.216l0,0.315c0,0.996 0.271,1.739 0.835,2.222c0.582,0.477 1.321,0.712 2.215,0.712c0.899,-0 1.594,-0.198 2.08,-0.611c0.47,-0.41 0.704,-0.93 0.704,-1.56c-0,-0.405 -0.095,-0.73 -0.297,-0.972c-0.002,-0.002 -0.004,-0.004 -0.006,-0.007c-0.2,-0.259 -0.486,-0.461 -0.855,-0.611c-0.002,-0.001 -0.004,-0.002 -0.007,-0.003c-0.387,-0.172 -0.84,-0.322 -1.357,-0.452l-1.061,-0.265c-0.001,-0 -0.002,-0 -0.003,-0.001c-0.645,-0.169 -1.221,-0.379 -1.731,-0.628c-0.001,-0.001 -0.002,-0.001 -0.003,-0.002c-0.531,-0.271 -0.948,-0.62 -1.254,-1.044c-0.001,-0.001 -0.001,-0.002 -0.002,-0.002c-0.311,-0.442 -0.47,-1.002 -0.47,-1.683c-0,-0.678 0.174,-1.266 0.519,-1.765c0,-0.001 0.001,-0.002 0.002,-0.003c0.354,-0.495 0.836,-0.874 1.45,-1.134c0.599,-0.265 1.296,-0.399 2.092,-0.399c0.794,0 1.508,0.14 2.142,0.416c0.658,0.282 1.174,0.7 1.55,1.252c0.388,0.542 0.586,1.223 0.586,2.047l0,0.779c0,0.12 -0.097,0.217 -0.216,0.217l-1.061,0c-0.12,0 -0.217,-0.097 -0.217,-0.217l0,-0.779c0,-0.556 -0.116,-1.007 -0.358,-1.351c-0.241,-0.341 -0.568,-0.591 -0.98,-0.752c-0.429,-0.167 -0.912,-0.25 -1.446,-0.25c-0.756,-0 -1.384,0.172 -1.881,0.524l-0.001,0c-0.461,0.324 -0.687,0.797 -0.687,1.415c-0,0.407 0.085,0.734 0.271,0.979c0.2,0.249 0.475,0.446 0.824,0.595c0.389,0.162 0.842,0.308 1.36,0.437l1.06,0.265c0.623,0.147 1.194,0.346 1.715,0.595c0.543,0.248 0.979,0.596 1.309,1.045c0.334,0.442 0.507,1.025 0.507,1.754c0,0.721 -0.185,1.347 -0.551,1.879c-0.353,0.529 -0.852,0.942 -1.499,1.236c-0.001,0.001 -0.002,0.001 -0.003,0.002c-0.633,0.276 -1.374,0.416 -2.225,0.416Z" style="fill:#f2fdff;fill-rule:nonzero;"/></g></svg>